<svg fill="#3b82f6" height="64px" width="64px" version="1.1" id="Capa_1" xmlns="http://www.w3.org/2000/svg" xmlns:xlink="http://www.w3.org/1999/xlink" viewBox="0 0 372 372" xml:space="preserve"><g id="SVGRepo_bgCarrier" stroke-width="0"></g><g id="SVGRepo_tracerCarrier" stroke-linecap="round" stroke-linejoin="round"></g><g id="SVGRepo_iconCarrier"> <g> <g id="Layer_5_15_"> <g> <g> <circle cx="120.862" cy="186" r="28.956"></circle> <path d="M120.862,221.955c-19.826,0-35.956-16.129-35.956-35.955s16.13-35.956,35.956-35.956s35.955,16.13,35.955,35.956 S140.688,221.955,120.862,221.955z M120.862,164.044c-12.107,0-21.956,9.85-21.956,21.956s9.849,21.955,21.956,21.955 c12.106,0,21.955-9.849,21.955-21.955S132.969,164.044,120.862,164.044z"></path> </g> <path d="M337,30H35C15.701,30,0,45.701,0,65v242c0,19.299,15.701,35,35,35h302c19.299,0,35-15.701,35-35V65 C372,45.701,356.299,30,337,30z M120.862,266.728c-44.514,0-80.729-36.214-80.729-80.728s36.215-80.729,80.729-80.729 c44.513,0,80.729,36.215,80.729,80.729S165.375,266.728,120.862,266.728z M263.867,162.313c0,6.065-4.935,11-11,11 c0,0-3.334,0.258-3.334,2.758c0,15.103,0,60.409,0,60.409c0,3.866-3.134,7-7,7s-7-3.134-7-7c0,0,0-45.307,0-60.409 c0-2.667-3.333-2.758-3.333-2.758c-6.065,0-11-4.935-11-11v-13.666c0-6.065,4.935-11,11-11c0,0,3.333-0.159,3.333-3.493 c0-3.418,0-13.674,0-13.674c0-3.866,3.134-7,7-7s7,3.134,7,7c0,0,0,10.256,0,13.674c0,2.917,3.334,3.493,3.334,3.493 c6.065,0,11,4.935,11,11V162.313z M331.867,196.146c0,6.065-4.935,11-11,11c0,0-3.334,0.091-3.334,2.257 c0,6.77,0,27.076,0,27.076c0,3.866-3.134,7-7,7s-7-3.134-7-7c0,0,0-20.307,0-27.076c0-2.583-3.333-2.257-3.333-2.257 c-6.065,0-11-4.935-11-11v-13.667c0-6.065,4.935-11,11-11c0,0,3.333-0.097,3.333-3.284c0-11.929,0-47.716,0-47.716 c0-3.866,3.134-7,7-7s7,3.134,7,7c0,0,0,35.787,0,47.716c0,3.438,3.334,3.284,3.334,3.284c6.065,0,11,4.935,11,11V196.146z"></path> </g> </g> </g> </g></svg>